:SAMPLES-PER-SECOND 30
:FULLY-SPECIFIED
:DEGREES
235
root  -31.27 39.0712 -2.3037 -176.168 47.8157 178.546
RightUpLeg  -15.0898 -14.9835 -11.5975
RightLeg  41.0805 -8.75198 -8.34553
RightFoot  3.93639 -3.46692 25.506
RightToes  -5.8209e-011 0 -3.6325e-017
Spine  13.2917 -3.07855 -1.40673
Spine1  8.30023 -0.623932 -11.7352
HEad  0.519505 24.9414 16.5389
LeftShoulder1  1.01979 -2.26335 -10.4292
LeftArm  19.5576 13.8689 -51.0903
LeftForeArm  72.1745 -79.1616 -87.3632
LeftHand  -1.63482 -2.35721 24.4387
RightShoulder  -0.110705 -6.30695 -5.11806
RightArm  -10.676 7.14491 67.1515
RightForeArm  60.9759 77.056 111.533
RightHand  -2.51987 4.03767 -30.5636
LeftUpLeg  -5.94425 4.65197 8.37987
LeftLeg  22.8459 6.69375 3.43724
LeftFoot  -13.5286 -0.301117 -19.9449
LeftToes  -3.91115e-011 -2.2622e-010 9.51032e-012
236
root  -31.8725 38.0658 -1.98094 -178.423 47.5469 177.15
RightUpLeg  -19.1557 -12.0849 -13.0744
RightLeg  49.9877 -6.49076 -8.54134
RightFoot  0.505766 -2.27016 21.6648
RightToes  -5.8209e-011 0 -3.6325e-017
Spine  14.5329 -1.94164 -5.45512
Spine1  11.6257 -0.560692 -9.13589
HEad  -5.76846 24.342 13.3489
LeftShoulder1  0.810404 -0.821718 -11.5734
LeftArm  18.0111 8.63088 -53.4901
LeftForeArm  45.2181 -77.5407 -59.0888
LeftHand  -1.63029 -1.63914 26.7578
RightShoulder  -0.196139 -5.81533 0.0965336
RightArm  -11.4509 4.61866 63.572
RightForeArm  65.9129 76.9268 113.727
RightHand  -1.98573 3.05472 -27.0525
LeftUpLeg  -7.87661 5.42856 7.63608
LeftLeg  28.5253 3.82562 2.60198
LeftFoot  -21.345 -1.55614 -18.9182
LeftToes  -3.91115e-011 -2.2622e-010 9.51032e-012
237
root  -32.2207 37.3609 -1.60249 -179.62 47.327 176.353
RightUpLeg  -23.26 -10.2471 -13.8802
RightLeg  56.1367 -4.73217 -7.99044
RightFoot  -1.64531 -1.50373 17.5144
RightToes  -5.8209e-011 0 -3.6325e-017
Spine  15.2737 -0.843731 -9.64659
Spine1  14.2868 -0.898895 -6.09683
HEad  -10.3943 24.2072 10.4149
LeftShoulder1  0.75768 -0.24419 -13.1645
LeftArm  15.7563 5.79507 -55.4928
LeftForeArm  30.5036 -74.8801 -44.5447
LeftHand  -1.79188 -1.03604 31.7881
RightShoulder  -0.17 -4.80016 5.21208
RightArm  -12.1458 1.98723 61.8621
RightForeArm  57.4324 77.788 102.398
RightHand  -1.61192 2.32903 -24.1763
LeftUpLeg  -9.88841 7.64532 7.87966
LeftLeg  33.1401 0.427319 0.684871
LeftFoot  -25.7299 -2.39169 -19.9954
LeftToes  -3.91115e-011 -2.2622e-010 9.51032e-012
238
root  -32.4073 37.0001 -1.27675 -179.707 46.3574 176.737
RightUpLeg  -25.9793 -10.8047 -14.0309
RightLeg  58.252 -4.59141 -8.41529
RightFoot  -3.63362 -1.13639 16.452
RightToes  -5.8209e-011 0 -3.6325e-017
Spine  16.9366 -0.31606 -12.0085
Spine1  14.8569 -1.67903 -3.33813
HEad  -13.3867 23.8101 8.07182
LeftShoulder1  0.816257 -0.331617 -14.3638
LeftArm  13.6927 5.77467 -57.3974
LeftForeArm  25.548 -73.5496 -40.1808
LeftHand  -2.20915 -1.34201 37.118
RightShoulder  -0.0222272 -3.61195 9.7332
RightArm  -12.6232 -2.20528 61.3078
RightForeArm  41.8959 78.1131 84.5862
RightHand  -1.60058 2.61443 -23.1527
LeftUpLeg  -11.6998 8.42383 8.78181
LeftLeg  36.2784 -1.91692 -1.1022
LeftFoot  -27.7334 -2.80614 -20.4543
LeftToes  -3.91115e-011 -2.2622e-010 9.51032e-012
239
root  -32.4825 36.9099 -1.04363 -179.384 45.3357 177.884
RightUpLeg  -27.5225 -12.3451 -13.9845
RightLeg  56.5305 -6.18383 -10.3488
RightFoot  -4.69708 -1.03122 17.0781
RightToes  -5.8209e-011 0 -3.6325e-017
Spine  19.3731 -0.0792651 -12.134
Spine1  14.4457 -2.18063 -1.60048
HEad  -15.8517 23.0737 6.05408
LeftShoulder1  0.831161 -0.249194 -15.3232
LeftArm  12.8461 6.5226 -59.6389
LeftForeArm  25.1362 -73.2901 -39.3441
LeftHand  -2.65153 -2.09601 39.9111
RightShoulder  0.166297 -2.66398 13.4064
RightArm  -13.0131 -7.40005 60.5398
RightForeArm  31.3148 77.7053 74.0315
RightHand  -1.85838 3.60323 -23.9102
LeftUpLeg  -12.5733 6.92523 9.78209
LeftLeg  37.7661 -2.05251 -1.30603
LeftFoot  -28.1027 -2.78699 -19.8806
LeftToes  -3.91115e-011 -2.2622e-010 9.51032e-012
240
root  -32.395 36.958 -0.868607 -179.099 45.018 178.683
RightUpLeg  -28.8664 -13.0151 -14.4021
RightLeg  51.9016 -8.60474 -11.9295
RightFoot  -4.10345 -1.09467 16.7727
RightToes  -5.8209e-011 0 -3.6325e-017
Spine  21.2298 0.24426 -11.917
Spine1  14.2897 -2.32479 -0.347787
HEad  -18.3946 22.65 3.6944
LeftShoulder1  0.778195 0.138093 -16.3718
LeftArm  13.0025 6.88202 -61.998
LeftForeArm  26.2761 -73.4555 -39.6817
LeftHand  -2.70132 -2.46651 38.7556
RightShoulder  0.340695 -1.97597 15.8837
RightArm  -13.3935 -11.9172 59.363
RightForeArm  27.4984 77.5195 72.3206
RightHand  -2.04708 4.23315 -24.6131
LeftUpLeg  -12.5061 4.96229 10.4161
LeftLeg  37.7877 -0.697948 -0.190857
LeftFoot  -27.7182 -2.67243 -19.558
LeftToes  -3.91115e-011 -2.2622e-010 9.51032e-012
